<?xml version="1.0" standalone="no"?>
<!DOCTYPE svg PUBLIC "-//W3C//DTD SVG 20010904//EN"
 "http://www.w3.org/TR/2001/REC-SVG-20010904/DTD/svg10.dtd">
<svg version="1.0" xmlns="http://www.w3.org/2000/svg"
 width="488.000000pt" height="103.000000pt" viewBox="0 0 488.000000 103.000000"
 preserveAspectRatio="xMidYMid meet">

<g transform="translate(0.000000,103.000000) scale(0.100000,-0.100000)"
fill="#000000" stroke="none">
<path d="M2 628 l3 -403 23 -32 c34 -48 96 -80 202 -104 74 -17 101 -28 124
-51 l29 -30 21 26 c16 20 44 32 119 51 107 27 149 45 185 79 52 47 52 47 52
471 l0 395 -114 0 c-105 0 -114 -1 -119 -20 -3 -11 -10 -20 -16 -20 -6 0 -11
9 -11 20 0 19 -7 20 -116 20 -107 0 -116 -1 -121 -20 -3 -11 -9 -20 -14 -20
-5 0 -9 9 -9 20 0 19 -7 20 -120 20 l-121 0 3 -402z m218 367 c0 -10 10 -15
30 -15 20 0 30 5 30 15 0 12 18 15 100 15 82 0 100 -3 100 -15 0 -10 11 -15
35 -15 24 0 35 5 35 15 0 12 17 15 95 15 l95 0 0 -386 c0 -366 -1 -388 -20
-418 -26 -44 -87 -75 -185 -97 -86 -18 -145 -42 -145 -59 0 -5 -16 1 -35 15
-20 13 -77 33 -130 45 -103 23 -148 48 -182 99 -23 34 -23 35 -23 417 l0 384
100 0 c82 0 100 -3 100 -15z"/>
<path d="M30 915 l0 -75 350 0 350 0 0 75 0 75 -85 0 c-69 0 -85 -3 -85 -15 0
-11 -12 -15 -45 -15 -33 0 -45 4 -45 15 0 12 -16 15 -85 15 -69 0 -85 -3 -85
-15 0 -11 -12 -15 -50 -15 -38 0 -50 4 -50 15 0 12 -16 15 -85 15 l-85 0 0
-75z m57 -7 l10 -23 7 23 c4 12 12 22 17 22 5 0 3 -15 -4 -32 -16 -40 -26 -39
-43 1 -15 35 -2 43 13 9z m123 12 c-17 -5 -19 -8 -7 -9 9 -1 17 -5 17 -10 0
-5 -8 -12 -17 -14 -14 -4 -12 -5 5 -6 12 0 22 -6 22 -12 0 -6 -12 -9 -27 -7
-23 2 -29 8 -31 36 -3 30 -2 32 30 31 31 -1 31 -1 8 -9z m117 -28 c1 -28 -1
-31 -14 -21 -12 10 -16 10 -24 -2 -6 -10 -9 -3 -9 24 0 34 3 38 23 35 17 -2
22 -10 24 -36z m73 9 c0 -17 -4 -33 -10 -36 -6 -4 -10 8 -10 29 0 20 5 36 10
36 6 0 10 -13 10 -29z m93 21 c-6 -4 -13 -21 -16 -37 l-4 -30 -2 32 c0 21 -7
33 -18 36 -10 3 -2 5 17 6 19 0 30 -3 23 -7z m95 -17 c17 -36 15 -50 -3 -35
-12 10 -18 10 -30 0 -10 -8 -15 -9 -15 -2 0 16 22 62 30 62 4 0 12 -11 18 -25z
m112 15 c0 -5 -8 -7 -17 -4 -16 5 -16 4 1 -10 20 -17 15 -46 -8 -46 -25 0 -29
20 -4 21 l23 0 -22 9 c-23 9 -29 21 -16 33 10 11 43 8 43 -3z"/>
<path d="M290 905 c0 -9 5 -15 11 -13 6 2 11 8 11 13 0 5 -5 11 -11 13 -6 2
-11 -4 -11 -13z"/>
<path d="M37 823 c-13 -12 -7 -545 6 -582 19 -55 71 -88 180 -115 54 -14 113
-34 132 -45 19 -11 35 -16 35 -12 0 13 73 40 153 57 91 19 154 55 173 100 11
26 14 96 14 319 l0 285 -343 0 c-189 0 -347 -3 -350 -7z m451 -104 c23 -40 32
-36 33 14 l1 42 15 -34 c8 -19 13 -45 10 -58 -2 -13 -3 -23 -1 -23 8 0 34 61
34 80 0 12 5 18 10 15 15 -9 12 -66 -5 -98 -19 -38 0 -24 36 25 16 23 29 34
29 25 0 -26 -20 -70 -43 -97 -20 -22 -20 -23 -2 -10 11 8 35 27 53 44 34 31
46 18 15 -16 -13 -15 -14 -21 -5 -27 19 -12 -20 -56 -68 -77 -22 -10 -38 -19
-36 -22 3 -2 25 5 50 17 25 11 46 16 46 11 0 -10 -48 -45 -81 -60 -23 -10 -23
-10 3 -5 14 3 34 8 45 11 12 4 10 -2 -10 -20 -15 -14 -35 -26 -44 -26 -16 0
-74 -56 -66 -64 3 -2 -4 -9 -16 -15 -20 -11 -20 -11 5 -36 13 -13 27 -38 30
-55 4 -16 10 -30 15 -30 16 0 9 37 -12 64 -21 26 -20 56 1 56 7 0 9 8 5 19 -4
14 0 23 14 30 28 15 34 14 26 -6 -4 -10 -7 -28 -6 -40 0 -17 -5 -23 -19 -23
-24 0 -24 2 -1 -43 24 -46 18 -72 -22 -92 -38 -19 -177 -21 -177 -2 0 8 -4 7
-10 -3 -8 -12 -10 -11 -10 8 0 28 24 39 48 21 9 -7 3 2 -14 20 -28 29 -34 32
-54 21 -16 -9 -20 -18 -16 -35 5 -20 1 -24 -24 -30 -47 -10 -55 3 -22 39 27
28 36 65 20 81 -9 10 12 87 33 121 25 40 24 44 -6 44 -16 0 -25 6 -25 15 0 8
5 15 10 15 6 0 15 11 20 25 11 28 37 32 88 14 25 -9 33 -18 38 -47 4 -21 7
-45 6 -54 -1 -26 5 -22 23 12 36 70 8 182 -61 238 -31 26 -35 32 -19 32 11 0
35 -9 53 -20 37 -23 37 -24 17 24 -16 37 -16 37 6 26 11 -7 28 -25 37 -41z
m-240 6 c10 18 11 18 12 2 0 -10 5 -15 10 -12 6 3 10 -1 10 -9 0 -10 6 -13 18
-9 15 6 15 5 3 -10 -12 -15 -11 -17 5 -18 14 0 15 -2 4 -6 -10 -4 -4 -10 20
-19 l35 -12 -34 -1 c-25 -1 -31 -4 -24 -13 7 -9 4 -19 -12 -35 -13 -12 -26
-19 -29 -16 -3 4 -6 -2 -6 -12 0 -14 -3 -15 -15 -5 -13 11 -15 8 -16 -16 0
-16 -3 -22 -6 -14 -2 8 -7 22 -9 30 -5 13 -6 13 -14 0 -8 -12 -10 -12 -10 4 0
16 -2 17 -17 5 -15 -12 -16 -12 -10 4 4 11 1 17 -9 17 -8 0 -13 4 -10 9 4 5 0
12 -6 14 -10 4 -9 8 2 16 12 8 8 11 -20 12 l-35 1 28 10 c15 5 25 14 21 19 -3
5 0 9 6 9 7 0 9 7 6 16 -5 12 -2 15 10 10 11 -4 15 -2 11 8 -4 10 -1 13 9 9 7
-3 14 0 14 7 0 6 5 8 11 5 6 -4 13 3 17 16 6 23 6 23 12 -6 5 -28 6 -29 18
-10z"/>
<path d="M624 579 c-19 -22 -19 -22 3 -10 24 12 39 31 25 31 -5 0 -17 -10 -28
-21z"/>
<path d="M200 656 c-18 -22 -5 -46 25 -46 23 0 26 4 23 27 -3 32 -29 41 -48
19z"/>
<path d="M3245 755 c-86 -30 -119 -109 -75 -180 20 -33 40 -42 164 -81 77 -24
91 -46 53 -80 -33 -28 -90 -32 -152 -8 -72 27 -71 27 -84 -5 -16 -38 -9 -48
48 -74 89 -40 235 -19 281 40 24 31 27 108 5 140 -23 32 -73 60 -145 78 -73
19 -90 29 -90 56 0 39 88 53 157 24 45 -19 40 -20 59 17 16 31 16 32 -5 49
-22 18 -104 39 -149 39 -15 -1 -45 -7 -67 -15z"/>
<path d="M3688 761 c-75 -25 -108 -63 -108 -124 0 -54 32 -92 95 -116 30 -12
62 -21 71 -21 8 0 30 -7 49 -14 44 -19 48 -57 10 -82 -31 -20 -115 -16 -164 9
-45 22 -45 22 -64 -19 l-17 -35 57 -26 c144 -66 313 -8 313 107 0 72 -44 111
-165 145 -69 20 -85 30 -85 56 0 39 79 51 155 24 22 -8 41 -15 42 -15 8 0 33
62 28 70 -20 32 -162 58 -217 41z"/>
<path d="M982 587 c3 -171 3 -174 30 -209 36 -47 90 -71 158 -72 68 0 121 24
158 72 27 35 27 38 30 209 l3 173 -45 0 -46 0 0 -146 c0 -158 -9 -191 -57
-213 -42 -19 -73 -13 -109 23 l-34 34 0 151 0 151 -46 0 -45 0 3 -173z"/>
<path d="M1460 535 l0 -225 45 0 44 0 3 148 3 147 100 -147 100 -147 53 -1 52
0 0 225 0 225 -50 0 -49 0 -3 -142 -3 -143 -95 142 -95 142 -52 1 -53 0 0
-225z"/>
<path d="M1960 535 l0 -225 45 0 45 0 0 225 0 225 -45 0 -45 0 0 -225z"/>
<path d="M2150 535 l0 -225 50 0 49 0 3 146 3 146 99 -146 100 -146 48 0 48 0
0 225 0 225 -45 0 -44 0 -3 -146 -3 -147 -98 147 -97 146 -55 0 -55 0 0 -225z"/>
<path d="M2715 553 c-50 -114 -93 -215 -97 -225 -7 -16 -2 -18 42 -18 47 0 50
2 64 35 l15 35 116 0 115 0 17 -35 c15 -32 20 -35 61 -35 38 0 43 2 38 18 -4
9 -46 110 -94 224 l-87 208 -50 0 -51 0 -89 -207z m186 -3 l38 -90 -80 0 c-43
0 -79 2 -79 5 0 15 73 185 78 180 3 -3 22 -46 43 -95z"/>
<path d="M4151 733 c-28 -60 -181 -415 -181 -419 0 -2 22 -4 49 -4 48 0 50 1
61 35 l12 35 119 0 119 0 14 -35 c14 -33 18 -35 60 -35 38 0 44 3 39 17 -4 9
-46 109 -94 222 l-87 206 -49 3 c-46 3 -50 1 -62 -25z m103 -175 c20 -48 36
-89 36 -92 0 -3 -36 -6 -80 -6 l-79 0 30 73 c16 39 34 83 40 96 5 13 11 22 13
20 2 -2 20 -43 40 -91z"/>
<path d="M4490 612 c0 -169 7 -203 52 -249 99 -102 291 -62 328 68 6 18 10
100 10 181 l0 148 -50 0 -50 0 0 -154 c0 -149 -1 -156 -24 -183 -20 -23 -32
-28 -71 -28 -39 0 -51 5 -71 28 -23 27 -24 34 -24 183 l0 154 -50 0 -50 0 0
-148z"/>
</g>
</svg>
